# xmcd CD database file
#
# Track frame offsets:
#	150
#	14576
#	30670
#	46655
#	63108
#	78392
#	89858
#	104237
#	120713
#	134931
#	149312
#	161025
#	175470
#	188719
#	202083
#	214813
#	224945
#	249427
#
# Disc length: 3380 seconds
#
# Revision: 0
# Processed by: cddbd v1.5PL3 Copyright (c) Steve Scherf et al.
# Submitted via: CDex 1.51
#
DISCID=230d3212
DTITLE=Various Artist - Country Gala 2004
DYEAR=2004
DGENRE=Country
TTITLE0=Joe Hodgkins - Chili Willy
TTITLE1=Silverwood - Jealous Heart
TTITLE2=Sally Carter - Gemeinsam Geht´s
TTITLE3=Michael Peterson - No More Looking Over My Shoulder
TTITLE4=Larry Schuba and Western Union - König Dieser Welt
TTITLE5=Katja Kaye - Heute Hier, Morgen Dort
TTITLE6=Slow Horses - Lovers ´Til The End
TTITLE7=Tom Astor and Leif - Wenn Ich Dich Mal Brauch (If I Needed You)
TTITLE8=Tommy Roberts - Live, Laugh, Love
TTITLE9=Linda Feller - Ich Liebe Dich, Ich Hasse Dich
TTITLE10=John Carter Cash - Mongolian King
TTITLE11=Truck Stop - Von Arizona Bis Old Texas
TTITLE12=Danni Leigh - Trying To Get Over You
TTITLE13=Jonny Hill - Ich Hab Noch Viele Träume
TTITLE14=Wanda Jackson - What Gives You The Right
TTITLE15=Wanda Jackson - Let´s Have A Party
TTITLE16=Various Artist - Zusammenstehn
TTITLE17=Data
EXTD=YEAR: 2004
EXTT0=
EXTT1=
EXTT2=
EXTT3=
EXTT4=
EXTT5=
EXTT6=
EXTT7=
EXTT8=
EXTT9=
EXTT10=
EXTT11=
EXTT12=
EXTT13=
EXTT14=
EXTT15=
EXTT16=
EXTT17=
PLAYORDER=
